<svg xmlns="http://www.w3.org/2000/svg" width="800" height="280" viewBox="0 0 800 280" role="img" aria-labelledby="title desc">
<title id="title">Languages</title>
<desc id="desc">Current source-line mix by language across owned repositories.</desc>
<style>
  .title { font: 600 16px ui-sans-serif, -apple-system, BlinkMacSystemFont, "Segoe UI", Helvetica, Arial, sans-serif; fill: #e6edf3; }
  .muted { font: 12px ui-sans-serif, -apple-system, BlinkMacSystemFont, "Segoe UI", Helvetica, Arial, sans-serif; fill: #8b949e; }
  .label { font: 13px ui-sans-serif, -apple-system, BlinkMacSystemFont, "Segoe UI", Helvetica, Arial, sans-serif; fill: #e6edf3; }
</style>
<defs>
  <clipPath id="bar"><rect x="28" y="58" width="744" height="8" rx="4"/></clipPath>
</defs>
<rect width="800" height="280" rx="6" fill="#0d1117"/>
<rect x=".5" y=".5" width="799" height="279" rx="5.5" fill="none" stroke="#30363d"/>
<text x="28" y="34" class="title">Languages</text>
<text x="772" y="34" class="muted" text-anchor="end">2.3M lines  ·  45 repos  ·  1009 MB</text>
<rect x="28" y="58" width="744" height="8" rx="4" fill="#21262d"/>
<g clip-path="url(#bar)"><rect x="28.00" y="58" width="177.26" height="8" fill="#3572A5"/><rect x="205.26" y="58" width="124.71" height="8" fill="#DAE1C2"/><rect x="329.98" y="58" width="119.84" height="8" fill="#555555"/><rect x="449.82" y="58" width="110.29" height="8" fill="#f34b7d"/><rect x="560.11" y="58" width="91.15" height="8" fill="#b2b7f8"/><rect x="651.26" y="58" width="38.38" height="8" fill="#adb2cb"/><rect x="689.65" y="58" width="28.68" height="8" fill="#e34c26"/><rect x="718.33" y="58" width="15.72" height="8" fill="#6E4C13"/><rect x="734.05" y="58" width="15.21" height="8" fill="#e4cc98"/><rect x="749.27" y="58" width="7.82" height="8" fill="#f1e05a"/><rect x="757.09" y="58" width="5.86" height="8" fill="#3178c6"/><rect x="762.95" y="58" width="3.88" height="8" fill="#3A4E3A"/><rect x="766.83" y="58" width="2.63" height="8" fill="#89e051"/><rect x="769.46" y="58" width="2.33" height="8" fill="#563d7c"/><rect x="771.80" y="58" width="0.15" height="8" fill="#e16737"/><rect x="771.94" y="58" width="0.06" height="8" fill="#4F5D95"/></g>
<circle cx="33.0" cy="94" r="4" fill="#3572A5"/><text x="44.0" y="98" class="label">Python</text><text x="268.0" y="98" class="muted" text-anchor="end">23.8%</text><circle cx="281.0" cy="94" r="4" fill="#DAE1C2"/><text x="292.0" y="98" class="label">SystemVerilog</text><text x="516.0" y="98" class="muted" text-anchor="end">16.8%</text><circle cx="529.0" cy="94" r="4" fill="#555555"/><text x="540.0" y="98" class="label">C</text><text x="764.0" y="98" class="muted" text-anchor="end">16.1%</text><circle cx="33.0" cy="126" r="4" fill="#f34b7d"/><text x="44.0" y="130" class="label">C++</text><text x="268.0" y="130" class="muted" text-anchor="end">14.8%</text><circle cx="281.0" cy="126" r="4" fill="#b2b7f8"/><text x="292.0" y="130" class="label">Verilog</text><text x="516.0" y="130" class="muted" text-anchor="end">12.3%</text><circle cx="529.0" cy="126" r="4" fill="#adb2cb"/><text x="540.0" y="130" class="label">VHDL</text><text x="764.0" y="130" class="muted" text-anchor="end">5.2%</text><circle cx="33.0" cy="158" r="4" fill="#e34c26"/><text x="44.0" y="162" class="label">HTML</text><text x="268.0" y="162" class="muted" text-anchor="end">3.9%</text><circle cx="281.0" cy="158" r="4" fill="#6E4C13"/><text x="292.0" y="162" class="label">Assembly</text><text x="516.0" y="162" class="muted" text-anchor="end">2.1%</text><circle cx="529.0" cy="158" r="4" fill="#e4cc98"/><text x="540.0" y="162" class="label">Tcl</text><text x="764.0" y="162" class="muted" text-anchor="end">2.0%</text><circle cx="33.0" cy="190" r="4" fill="#f1e05a"/><text x="44.0" y="194" class="label">JavaScript</text><text x="268.0" y="194" class="muted" text-anchor="end">1.1%</text><circle cx="281.0" cy="190" r="4" fill="#3178c6"/><text x="292.0" y="194" class="label">TypeScript</text><text x="516.0" y="194" class="muted" text-anchor="end">0.8%</text><circle cx="529.0" cy="190" r="4" fill="#3A4E3A"/><text x="540.0" y="194" class="label">CUDA</text><text x="764.0" y="194" class="muted" text-anchor="end">0.5%</text><circle cx="33.0" cy="222" r="4" fill="#89e051"/><text x="44.0" y="226" class="label">Shell</text><text x="268.0" y="226" class="muted" text-anchor="end">0.4%</text><circle cx="281.0" cy="222" r="4" fill="#563d7c"/><text x="292.0" y="226" class="label">CSS</text><text x="516.0" y="226" class="muted" text-anchor="end">0.3%</text><circle cx="529.0" cy="222" r="4" fill="#e16737"/><text x="540.0" y="226" class="label">MATLAB/Obj-C</text><text x="764.0" y="226" class="muted" text-anchor="end">&lt;0.1%</text><circle cx="33.0" cy="254" r="4" fill="#4F5D95"/><text x="44.0" y="258" class="label">PHP</text><text x="268.0" y="258" class="muted" text-anchor="end">&lt;0.1%</text>
</svg>
